<svg width="40" height="40" viewBox="0 0 40 40" fill="none" xmlns="http://www.w3.org/2000/svg">
<rect x="0.5" y="0.5" width="39" height="39" rx="19.5" fill="url(#paint0_linear_556_703)"/>
<path d="M32.3616 15.9054C32.3598 15.8918 32.3571 15.8791 32.3544 15.8683C32.3434 15.8154 32.3289 15.7645 32.3081 15.7156L30.1775 10.4117C29.8094 9.31569 28.7903 8.63477 27.5088 8.63477H12.5537C11.2975 8.63477 10.3214 9.30289 9.96773 10.359L7.67717 15.7709C7.66636 15.8029 7.65442 15.85 7.64444 15.8982C7.47813 16.409 7.39453 16.9335 7.39453 17.4598C7.39632 19.3114 8.41256 21.002 10.0442 21.87C10.7159 22.23 11.5075 22.4118 12.3964 22.4118H12.3992C13.8909 22.4082 15.2724 21.7528 16.2142 20.6311C17.1512 21.7427 18.5219 22.3944 20.0108 22.4036C21.4879 22.3926 22.8541 21.7383 23.7875 20.6266C24.7292 21.7483 26.1125 22.4018 27.6114 22.4018C28.5187 22.3964 29.3239 22.2064 30.002 21.8337C31.609 20.9566 32.6061 19.2723 32.6053 17.4407C32.6061 16.9135 32.5199 16.3863 32.3616 15.9054ZM27.0671 16.7917H12.5228C12.0211 16.7917 11.6139 16.3845 11.6139 15.8827C11.6139 15.3811 12.0211 14.9739 12.5228 14.9739H27.0671C27.5697 14.9739 27.9759 15.3811 27.9759 15.8827C27.9759 16.3845 27.5697 16.7917 27.0671 16.7917Z" fill="white"/>
<path d="M30.7209 24.0641C30.7209 23.5614 30.3147 23.1552 29.8119 23.1552C29.7183 23.1552 29.6338 23.1815 29.5492 23.2088C28.8757 23.4752 28.014 23.6187 27.3642 23.5833C25.9316 23.5069 24.8399 23.2215 23.7883 22.3262C22.7512 23.2106 21.4277 23.7141 20.0188 23.7269C18.59 23.7177 17.2592 23.3596 16.2167 22.4735C15.1677 23.3678 13.8289 23.8031 12.4027 23.8031H12.3973C11.5266 23.8031 11.0357 23.6378 10.243 23.345C10.2213 23.3342 10.1986 23.3287 10.1758 23.3206C10.1376 23.3061 10.1085 23.2961 10.0694 23.2815C10.0694 23.2815 9.93861 23.2588 9.86678 23.2588H9.86496C9.36318 23.2588 8.95693 23.6668 8.95776 24.1695L8.96414 29.0406C8.96414 30.3222 10.0085 31.3648 11.2928 31.3648L28.3976 31.3538C29.6801 31.3502 30.7236 30.3049 30.7236 29.0233L30.7209 24.0641Z" fill="white"/>
<defs>
<linearGradient id="paint0_linear_556_703" x1="20" y1="0.5" x2="20" y2="39.5" gradientUnits="userSpaceOnUse">
<stop stop-color="#54D7F5"/>
<stop offset="1" stop-color="#25B4D5"/>
</linearGradient>
</defs>
</svg>
