<svg width="33" height="32" viewBox="0 0 33 32" fill="none" xmlns="http://www.w3.org/2000/svg">
<g clip-path="url(#clip0_556_758)">
<path d="M6.8965 31.9998C5.94424 31.9993 5.03112 31.6208 4.35777 30.9474C3.68441 30.2741 3.30591 29.3609 3.30542 28.4087V3.59547C3.30677 2.64348 3.68555 1.73085 4.35871 1.05769C5.03188 0.384521 5.9445 0.00574289 6.8965 0.00439453H21.3567C22.2737 0.127254 23.1216 0.558691 23.7607 1.22768C25.4325 2.78922 26.3843 3.76692 28.3271 5.81036C29.22 6.75099 29.6876 7.52018 29.688 8.18279V28.4087C29.6877 29.3607 29.3094 30.2737 28.6363 30.9471C27.9632 31.6204 27.0504 31.999 26.0984 31.9998H6.8965ZM7.09899 2.83556C6.83144 2.83629 6.57508 2.943 6.38602 3.13231C6.19696 3.32163 6.09061 3.57814 6.09025 3.84569V28.1909C6.09 28.3235 6.11592 28.4549 6.16651 28.5774C6.2171 28.7 6.29137 28.8114 6.38507 28.9052C6.47877 28.9991 6.59006 29.0735 6.71257 29.1242C6.83507 29.175 6.96639 29.2011 7.09899 29.201H25.9209C26.0535 29.2011 26.1848 29.175 26.3073 29.1242C26.4298 29.0735 26.5411 28.9991 26.6348 28.9052C26.7285 28.8114 26.8028 28.7 26.8534 28.5774C26.904 28.4549 26.9299 28.3235 26.9296 28.1909V9.28097H22.2218C20.43 9.28097 19.9611 8.45618 19.9611 6.66759V2.83556H7.09899ZM12.9152 18.7336L10.2096 15.7356C11.633 15.4854 13.9197 15.3047 13.9438 15.3047L14.3706 15.2723L14.5485 14.8831C14.5596 14.8599 15.6073 12.5709 16.3408 11.2688C17.0743 12.557 18.0622 14.8321 18.0724 14.8552L18.2466 15.263L18.6859 15.2908C18.7105 15.2954 21.0574 15.4715 22.4855 15.7171L19.7887 18.7197L20.1793 22.8529L16.3538 21.0551L12.5375 22.8668L12.9152 18.7336Z" fill="url(#paint0_linear_556_758)"/>
</g>
<defs>
<linearGradient id="paint0_linear_556_758" x1="16.4967" y1="0.00439453" x2="16.4967" y2="31.9998" gradientUnits="userSpaceOnUse">
<stop stop-color="#8CB4FA"/>
<stop offset="1" stop-color="#5796F3"/>
</linearGradient>
<clipPath id="clip0_556_758">
<rect width="32" height="32" fill="white" transform="translate(0.5)"/>
</clipPath>
</defs>
</svg>
