<svg width="33" height="32" viewBox="0 0 33 32" fill="none" xmlns="http://www.w3.org/2000/svg">
<path d="M30.7912 5.23816C30.7912 4.07137 30.7912 2.92112 30.7332 1.86191C29.5686 2.18247 28.3729 2.37667 27.1667 2.44116C22.5243 2.72253 19.3383 1.233 16.4089 0C13.1569 1.88672 7.15734 3.31006 2.2419 1.86191V13.6457C2.2419 14.9697 2.13433 16.2938 2.2419 17.5764C2.60602 21.6064 5.19615 24.5772 7.77799 26.7867C10.4343 28.9439 13.3924 30.7003 16.5579 32C18.3715 31.1978 20.1249 30.2658 21.8044 29.2113C23.2481 28.2419 24.63 27.1833 25.9419 26.0419C28.0438 24.1303 30.1622 21.6974 30.725 18.5115C30.7575 18.2618 30.7741 18.0103 30.7746 17.7585L30.7912 5.23816ZM24.7337 23.1208H7.35593V21.3747H9.83846V14.0181H11.7086V21.3747H15.1594V10.5012H17.1702V15.0028H22.8801V16.7075H17.1703V21.3747H24.7503L24.7337 23.1208ZM24.4689 13.4885C21.2534 12.0932 18.3686 10.0347 16.0035 7.44763C13.6708 10.0031 10.8371 12.0509 7.67865 13.4637C7.3165 12.8553 6.87393 12.2986 6.3629 11.8087C10.0785 10.3522 13.8106 7.67103 15.8131 4.6175L17.5426 5.445C17.402 5.66844 17.2365 5.87531 17.071 6.09875C19.4516 8.65906 22.4113 10.6114 25.7019 11.7921C25.1694 12.2551 24.748 12.8321 24.469 13.4802L24.4689 13.4885Z" fill="url(#paint0_linear_556_753)"/>
<defs>
<linearGradient id="paint0_linear_556_753" x1="16.4926" y1="0" x2="16.4926" y2="32" gradientUnits="userSpaceOnUse">
<stop stop-color="#FFB675"/>
<stop offset="1" stop-color="#F59436"/>
</linearGradient>
</defs>
</svg>
