<svg width="40" height="40" viewBox="0 0 40 40" fill="none" xmlns="http://www.w3.org/2000/svg">
<rect x="0.5" y="0.5" width="39" height="39" rx="19.5" fill="url(#paint0_linear_556_681)"/>
<path d="M30.1057 26.031H11.0194V10.2981C11.0194 9.67763 10.5171 9.17536 9.89665 9.17536C9.2762 9.17289 8.77393 9.67763 8.77393 10.2956V27.1513C8.77393 27.7718 9.2762 28.274 9.89665 28.274H12.898C12.8241 28.4981 12.7724 28.732 12.7724 28.9807C12.7724 30.2216 13.777 31.2261 15.0179 31.2261C16.2588 31.2261 17.2633 30.2216 17.2633 28.9807C17.2633 28.732 17.2141 28.4981 17.1378 28.274H24.8959C24.822 28.4981 24.7703 28.732 24.7703 28.9807C24.7703 30.2216 25.7749 31.2261 27.0158 31.2261C28.2567 31.2261 29.2612 30.2216 29.2612 28.9807C29.2612 28.732 29.212 28.4981 29.1357 28.274H30.1033C30.7237 28.274 31.226 27.7718 31.226 27.1513C31.2285 26.5333 30.7262 26.031 30.1057 26.031ZM13.2821 16.4657H29.5616C30.1821 16.4657 30.6843 15.9634 30.6843 15.343V10.2907C30.6843 9.67024 30.1821 9.16797 29.5616 9.16797H13.2821C12.6616 9.16797 12.1593 9.67024 12.1593 10.2907V15.343C12.1593 15.9634 12.6641 16.4657 13.2821 16.4657ZM15.5472 10.8521H16.1086C16.4188 10.8521 16.6699 11.1032 16.6699 11.4134C16.6699 11.7237 16.4188 11.9748 16.1086 11.9748H15.5472C14.9169 11.9748 14.4048 12.4869 14.4048 13.1172C14.4048 13.4274 14.1537 13.6786 13.8434 13.6786C13.5332 13.6786 13.2821 13.4274 13.2821 13.1172C13.2821 11.8689 14.2989 10.8521 15.5472 10.8521ZM13.2821 24.9034H29.5616C30.1821 24.9034 30.6843 24.4011 30.6843 23.7807V18.7284C30.6843 18.1079 30.1821 17.6057 29.5616 17.6057H13.2821C12.6616 17.6057 12.1593 18.1079 12.1593 18.7284V23.7807C12.1593 24.4011 12.6641 24.9034 13.2821 24.9034ZM15.5472 19.3833H16.1086C16.4188 19.3833 16.6699 19.6344 16.6699 19.9447C16.6699 20.2549 16.4188 20.506 16.1086 20.506H15.5472C14.9169 20.506 14.4048 21.0182 14.4048 21.6485C14.4048 21.9587 14.1537 22.2098 13.8434 22.2098C13.5332 22.2098 13.2821 21.9587 13.2821 21.6485C13.2821 20.4002 14.2989 19.3833 15.5472 19.3833Z" fill="white"/>
<defs>
<linearGradient id="paint0_linear_556_681" x1="20" y1="0.5" x2="20" y2="39.5" gradientUnits="userSpaceOnUse">
<stop stop-color="#8CB4FA"/>
<stop offset="1" stop-color="#5796F3"/>
</linearGradient>
</defs>
</svg>
