<svg width="40" height="40" viewBox="0 0 40 40" fill="none" xmlns="http://www.w3.org/2000/svg">
<rect x="0.5" y="0.5" width="39" height="39" rx="19.5" fill="url(#paint0_linear_556_696)"/>
<path d="M31.6671 16.0439H8.36747C8.16149 16.0439 7.96395 16.1261 7.8183 16.2723C7.67265 16.4186 7.59082 16.617 7.59082 16.8239C7.59082 17.0308 7.67265 17.2292 7.8183 17.3754C7.96395 17.5217 8.16149 17.6039 8.36747 17.6039H9.69244L11.0516 29.223C11.0516 30.4367 11.9385 31.4242 13.0305 31.4242H27.004C28.0945 31.4242 28.983 30.4367 28.9783 29.2994L30.3421 17.6023H31.6671C31.8668 17.5934 32.0555 17.5073 32.1937 17.3622C32.3319 17.217 32.409 17.0239 32.409 16.8231C32.409 16.6223 32.3319 16.4292 32.1937 16.284C32.0555 16.1389 31.8668 16.0529 31.6671 16.0439ZM17.1157 26.184C17.1157 26.3909 17.0339 26.5893 16.8882 26.7356C16.7426 26.8819 16.545 26.9641 16.339 26.9641C16.1331 26.9641 15.9355 26.8819 15.7899 26.7356C15.6442 26.5893 15.5624 26.3909 15.5624 26.184V21.504C15.5624 21.2971 15.6442 21.0987 15.7899 20.9524C15.9355 20.8061 16.1331 20.724 16.339 20.724C16.545 20.724 16.7426 20.8061 16.8882 20.9524C17.0339 21.0987 17.1157 21.2971 17.1157 21.504V26.184ZM20.9865 26.184C20.9865 26.3909 20.9047 26.5893 20.7591 26.7356C20.6134 26.8819 20.4159 26.9641 20.2099 26.9641C20.0039 26.9641 19.8064 26.8819 19.6607 26.7356C19.5151 26.5893 19.4332 26.3909 19.4332 26.184V21.504C19.4332 21.2971 19.5151 21.0987 19.6607 20.9524C19.8064 20.8061 20.0039 20.724 20.2099 20.724C20.4159 20.724 20.6134 20.8061 20.7591 20.9524C20.9047 21.0987 20.9865 21.2971 20.9865 21.504V26.184ZM24.8589 26.184C24.8589 26.3909 24.7771 26.5893 24.6315 26.7356C24.4858 26.8819 24.2883 26.9641 24.0823 26.9641C23.8763 26.9641 23.6787 26.8819 23.5331 26.7356C23.3874 26.5893 23.3056 26.3909 23.3056 26.184V21.504C23.3056 21.2971 23.3874 21.0987 23.5331 20.9524C23.6787 20.8061 23.8763 20.724 24.0823 20.724C24.2883 20.724 24.4858 20.8061 24.6315 20.9524C24.7771 21.0987 24.8589 21.2971 24.8589 21.504V26.184ZM25.9633 14.9347C26.0221 15.0185 26.0967 15.0898 26.1829 15.1447C26.2691 15.1995 26.3652 15.2367 26.4657 15.2543C26.5663 15.2718 26.6693 15.2693 26.7688 15.2468C26.8684 15.2244 26.9626 15.1825 27.046 15.1235C27.1294 15.0645 27.2005 14.9895 27.255 14.903C27.3096 14.8164 27.3467 14.7199 27.3642 14.6189C27.3816 14.5179 27.3791 14.4145 27.3568 14.3145C27.3344 14.2145 27.2927 14.1199 27.2339 14.0361L23.6349 8.90676C23.5762 8.82297 23.5016 8.75162 23.4154 8.69679C23.3292 8.64196 23.2331 8.60471 23.1325 8.58718C23.032 8.56965 22.929 8.57219 22.8294 8.59463C22.7299 8.61708 22.6357 8.659 22.5523 8.718C22.4688 8.777 22.3978 8.85193 22.3432 8.9385C22.2886 9.02508 22.2515 9.1216 22.2341 9.22257C22.2166 9.32354 22.2191 9.42697 22.2415 9.52696C22.2638 9.62695 22.3056 9.72154 22.3643 9.80533L25.9633 14.9347ZM14.0712 14.9347L17.6702 9.80533C17.7823 9.63614 17.8242 9.4297 17.787 9.22995C17.7498 9.0302 17.6365 8.85292 17.4711 8.73583C17.3057 8.61873 17.1014 8.57108 16.9016 8.603C16.7017 8.63493 16.5222 8.74391 16.4012 8.90676L12.8006 14.0361C12.7419 14.1199 12.7001 14.2145 12.6778 14.3145C12.6554 14.4145 12.6529 14.5179 12.6704 14.6189C12.6878 14.7199 12.7249 14.8164 12.7795 14.903C12.8341 14.9895 12.9051 15.0645 12.9886 15.1235C13.072 15.1825 13.1662 15.2244 13.2657 15.2468C13.3653 15.2693 13.4683 15.2718 13.5688 15.2543C13.6693 15.2367 13.7655 15.1995 13.8517 15.1447C13.9379 15.0898 14.0125 15.0185 14.0712 14.9347Z" fill="white"/>
<defs>
<linearGradient id="paint0_linear_556_696" x1="20" y1="0.5" x2="20" y2="39.5" gradientUnits="userSpaceOnUse">
<stop stop-color="#FF959A"/>
<stop offset="1" stop-color="#FF6460"/>
</linearGradient>
</defs>
</svg>
