<svg width="33" height="32" viewBox="0 0 33 32" fill="none" xmlns="http://www.w3.org/2000/svg">
<path d="M14.7 6.1001H18.1V8.6651H14.7V6.1001ZM9.94995 6.1001H13.35V8.6651H9.94995V6.1001ZM19.45 6.1001H22.85V8.6651H19.45V6.1001Z" fill="url(#paint0_linear_556_735)"/>
<path d="M26.5 2H6.5C5.43913 2 4.42172 2.42143 3.67157 3.17157C2.92143 3.92172 2.5 4.93913 2.5 6V26C2.5 27.0609 2.92143 28.0783 3.67157 28.8284C4.42172 29.5786 5.43913 30 6.5 30H26.5C27.5609 30 28.5783 29.5786 29.3284 28.8284C30.0786 28.0783 30.5 27.0609 30.5 26V6C30.5 4.93913 30.0786 3.92172 29.3284 3.17157C28.5783 2.42143 27.5609 2 26.5 2ZM8.6 4.85H24.25V10.35H22.9V9.95H9.95V10.35H8.6V4.85ZM23.85 11V19.7C23.85 21.15 23.05 21.9 21.45 21.9L19.1 21.8C19.0484 21.2915 18.948 20.7892 18.8 20.3C19.6121 20.4142 20.4301 20.481 21.25 20.5C21.4049 20.5156 21.5613 20.4966 21.7079 20.4443C21.8545 20.392 21.9877 20.3078 22.0978 20.1978C22.2078 20.0877 22.292 19.9545 22.3443 19.8079C22.3966 19.6613 22.4156 19.5049 22.4 19.35V11H23.85ZM18.25 11.65V19.15H16.8V11.65H18.25ZM13.55 13.05L12.4 13.95C11.6967 12.9979 10.9282 12.0957 10.1 11.25L11.05 10.45C11.9425 11.2577 12.7779 12.1265 13.55 13.05ZM7.45 14.15H11.5V19.6L14.7 17.4C14.7905 17.8941 14.9243 18.3794 15.1 18.85C13.4 19.95 11.85 21 10.4 22.05L9.35 20.85C9.59753 20.702 9.79887 20.4879 9.93136 20.2317C10.0639 19.9756 10.1223 19.6875 10.1 19.4V15.5H7.45V14.15ZM25.5 26H7.5C7.23478 26 6.98043 25.8946 6.79289 25.7071C6.60536 25.5196 6.5 25.2652 6.5 25C6.5 24.7348 6.60536 24.4804 6.79289 24.2929C6.98043 24.1054 7.23478 24 7.5 24H25.5C25.7652 24 26.0196 24.1054 26.2071 24.2929C26.3946 24.4804 26.5 24.7348 26.5 25C26.5 25.2652 26.3946 25.5196 26.2071 25.7071C26.0196 25.8946 25.7652 26 25.5 26Z" fill="url(#paint1_linear_556_735)"/>
<defs>
<linearGradient id="paint0_linear_556_735" x1="16.4" y1="6.1001" x2="16.4" y2="8.6651" gradientUnits="userSpaceOnUse">
<stop stop-color="#FFB675"/>
<stop offset="1" stop-color="#F59436"/>
</linearGradient>
<linearGradient id="paint1_linear_556_735" x1="16.5" y1="2" x2="16.5" y2="30" gradientUnits="userSpaceOnUse">
<stop stop-color="#FFB675"/>
<stop offset="1" stop-color="#F59436"/>
</linearGradient>
</defs>
</svg>
