<svg width="32" height="32" viewBox="0 0 32 32" fill="none" xmlns="http://www.w3.org/2000/svg">
<path d="M27.6667 5.33226H24.7608C24.7817 5.36746 24.8025 5.40309 24.8233 5.43871C25.1617 6.03705 25.3333 6.67413 25.3333 7.33226C25.3333 7.86269 25.1226 8.3714 24.7475 8.74647C24.3725 9.12154 23.8638 9.33226 23.3333 9.33226H10C9.46957 9.33226 8.96086 9.12154 8.58579 8.74647C8.21071 8.3714 8 7.86269 8 7.33226C8 6.67413 8.17167 6.03705 8.51 5.43871C8.53083 5.40309 8.55167 5.36746 8.5725 5.33226H5.66667C5.22479 5.33275 4.80116 5.50851 4.4887 5.82096C4.17625 6.13341 4.0005 6.55705 4 6.99892V28.9989C4.0005 29.4408 4.17625 29.8644 4.4887 30.1769C4.80116 30.4893 5.22479 30.6651 5.66667 30.6656H27.6667C28.1085 30.6651 28.5322 30.4893 28.8446 30.1769C29.1571 29.8644 29.3328 29.4408 29.3333 28.9989V6.99892C29.3328 6.55705 29.1571 6.13341 28.8446 5.82096C28.5322 5.50851 28.1085 5.33275 27.6667 5.33226ZM14.4715 22.4704L11.8048 25.137C11.7429 25.199 11.6694 25.2481 11.5885 25.2816C11.5076 25.3151 11.4209 25.3324 11.3333 25.3324C11.2458 25.3324 11.1591 25.3151 11.0782 25.2816C10.9973 25.2481 10.9238 25.199 10.8619 25.137L9.52854 23.8037C9.4035 23.6787 9.33326 23.5091 9.33326 23.3323C9.33326 23.1554 9.4035 22.9858 9.52854 22.8608C9.65358 22.7358 9.82317 22.6655 10 22.6655C10.1768 22.6655 10.3464 22.7358 10.4715 22.8608L11.3333 23.7229L13.5285 21.5275C13.6536 21.4024 13.8232 21.3322 14 21.3322C14.1768 21.3322 14.3464 21.4024 14.4715 21.5275C14.5965 21.6525 14.6667 21.8221 14.6667 21.9989C14.6667 22.1758 14.5965 22.3453 14.4715 22.4704ZM14.4715 17.137L11.8048 19.8037C11.7429 19.8656 11.6694 19.9148 11.5885 19.9483C11.5076 19.9818 11.4209 19.999 11.3333 19.999C11.2458 19.999 11.1591 19.9818 11.0782 19.9483C10.9973 19.9148 10.9238 19.8656 10.8619 19.8037L9.52854 18.4704C9.4035 18.3453 9.33326 18.1758 9.33326 17.9989C9.33326 17.8221 9.4035 17.6525 9.52854 17.5275C9.65358 17.4024 9.82317 17.3322 10 17.3322C10.1768 17.3322 10.3464 17.4024 10.4715 17.5275L11.3333 18.3895L13.5285 16.1941C13.6536 16.0691 13.8232 15.9988 14 15.9988C14.1768 15.9988 14.3464 16.0691 14.4715 16.1941C14.5965 16.3192 14.6667 16.4888 14.6667 16.6656C14.6667 16.8424 14.5965 17.012 14.4715 17.137ZM14.4715 11.8037L11.8048 14.4704C11.7429 14.5323 11.6694 14.5814 11.5885 14.6149C11.5076 14.6484 11.4209 14.6657 11.3333 14.6657C11.2458 14.6657 11.1591 14.6484 11.0782 14.6149C10.9973 14.5814 10.9238 14.5323 10.8619 14.4704L9.52854 13.137C9.46663 13.0751 9.41752 13.0016 9.38401 12.9207C9.3505 12.8398 9.33326 12.7531 9.33326 12.6656C9.33326 12.4888 9.4035 12.3192 9.52854 12.1941C9.59045 12.1322 9.66396 12.0831 9.74485 12.0496C9.82574 12.0161 9.91244 11.9988 10 11.9988C10.1768 11.9988 10.3464 12.0691 10.4715 12.1941L11.3333 13.0562L13.5285 10.8608C13.6536 10.7358 13.8232 10.6655 14 10.6655C14.1768 10.6655 14.3464 10.7358 14.4715 10.8608C14.5965 10.9858 14.6667 11.1554 14.6667 11.3323C14.6667 11.5091 14.5965 11.6787 14.4715 11.8037ZM23.3333 23.9989H16.6667C16.4899 23.9989 16.3203 23.9287 16.1953 23.8037C16.0702 23.6786 16 23.5091 16 23.3323C16 23.1554 16.0702 22.9859 16.1953 22.8609C16.3203 22.7358 16.4899 22.6656 16.6667 22.6656H23.3333C23.5101 22.6656 23.6797 22.7358 23.8047 22.8609C23.9298 22.9859 24 23.1554 24 23.3323C24 23.5091 23.9298 23.6786 23.8047 23.8037C23.6797 23.9287 23.5101 23.9989 23.3333 23.9989ZM23.3333 18.6656H16.6667C16.4899 18.6656 16.3203 18.5954 16.1953 18.4703C16.0702 18.3453 16 18.1757 16 17.9989C16 17.8221 16.0702 17.6525 16.1953 17.5275C16.3203 17.4025 16.4899 17.3323 16.6667 17.3323H23.3333C23.5101 17.3323 23.6797 17.4025 23.8047 17.5275C23.9298 17.6525 24 17.8221 24 17.9989C24 18.1757 23.9298 18.3453 23.8047 18.4703C23.6797 18.5954 23.5101 18.6656 23.3333 18.6656ZM23.3333 13.3323H16.6667C16.4899 13.3323 16.3203 13.262 16.1953 13.137C16.0702 13.012 16 12.8424 16 12.6656C16 12.4888 16.0702 12.3192 16.1953 12.1942C16.3203 12.0692 16.4899 11.9989 16.6667 11.9989H23.3333C23.5101 11.9989 23.6797 12.0692 23.8047 12.1942C23.9298 12.3192 24 12.4888 24 12.6656C24 12.8424 23.9298 13.012 23.8047 13.137C23.6797 13.262 23.5101 13.3323 23.3333 13.3323ZM9.33333 7.33226C9.33333 6.5183 9.74813 5.74517 10.5327 5.09642C11.1433 4.59163 11.9719 4.16934 12.9448 3.8658C13.2139 3.18806 13.6616 2.59585 14.2402 2.15205C14.9373 1.62015 15.7898 1.33203 16.6667 1.33203C17.5435 1.33203 18.396 1.62015 19.0931 2.15205C19.6717 2.59585 20.1194 3.18806 20.3885 3.8658C21.3615 4.16934 22.1902 4.59163 22.8006 5.09642C23.5852 5.74517 24 6.5183 24 7.33226C24 7.50907 23.9298 7.67864 23.8047 7.80366C23.6797 7.92868 23.5101 7.99892 23.3333 7.99892H10C9.82319 7.99892 9.65362 7.92868 9.5286 7.80366C9.40357 7.67864 9.33333 7.50907 9.33333 7.33226Z" fill="url(#paint0_linear_3544_15428)"/>
<defs>
<linearGradient id="paint0_linear_3544_15428" x1="4" y1="15.9988" x2="29.3333" y2="15.9988" gradientUnits="userSpaceOnUse">
<stop stop-color="#3164DE"/>
<stop offset="1" stop-color="#7EA4FF"/>
</linearGradient>
</defs>
</svg>
