<svg width="28" height="29" viewBox="0 0 28 29" fill="none" xmlns="http://www.w3.org/2000/svg">
<path d="M27.3593 5.47909C27.7128 5.92184 27.9998 6.74609 27.9998 7.30959V21.8993C27.9998 23.0561 27.0635 23.9958 25.9068 23.9976H13.2473C14.1664 23.3093 14.9127 22.4165 15.4269 21.3898C15.9412 20.3632 16.2093 19.2309 16.21 18.0826C16.2082 16.1185 15.4271 14.2354 14.0383 12.8466C12.6495 11.4578 10.7664 10.6767 8.80228 10.6748C7.52131 10.6764 6.26264 11.0102 5.14922 11.6435C4.0358 12.2769 3.1057 13.1883 2.44978 14.2886V7.30959C2.44978 6.74609 2.73853 5.92184 3.09028 5.47909L6.46078 1.25109C6.61829 1.05436 6.81804 0.89559 7.04524 0.786535C7.27244 0.67748 7.52126 0.620937 7.77328 0.621094H22.6763C23.1873 0.621094 23.672 0.853844 23.9888 1.25109L27.361 5.47909H27.3593ZM4.19453 5.44409H26.255L25.1403 4.04409H19.1588L18.7405 2.80684H24.1585L23.336 1.77434C23.2576 1.67504 23.1576 1.5949 23.0436 1.54002C22.9296 1.48514 22.8046 1.45695 22.678 1.45759H7.77678C7.65077 1.45752 7.52636 1.48579 7.41276 1.54031C7.29916 1.59484 7.19928 1.67423 7.12053 1.77259L6.29453 2.80859H11.5795L10.827 4.04409H5.31278L4.19628 5.44409H4.19453ZM8.80403 11.9366C9.71839 11.9348 10.6217 12.1368 11.4481 12.5279C12.2746 12.919 13.0036 13.4894 13.5819 14.1976C14.1603 14.9058 14.5735 15.7341 14.7916 16.622C15.0097 17.51 15.0271 18.4354 14.8427 19.331C14.6582 20.2265 14.2764 21.0697 13.7252 21.7992C13.1739 22.5287 12.467 23.1262 11.6558 23.5482C10.8446 23.9701 9.94961 24.206 9.03583 24.2387C8.12205 24.2713 7.21248 24.0999 6.37328 23.7368L2.58103 27.8791C2.31125 28.1569 1.94376 28.3186 1.55667 28.3297C1.16958 28.3409 0.793407 28.2006 0.508095 27.9388C0.222783 27.6769 0.0508296 27.3141 0.028782 26.9275C0.00673442 26.5409 0.136331 26.1609 0.390026 25.8683L4.00378 21.9238C3.28077 21.0193 2.82786 19.929 2.69717 18.7784C2.56648 17.6278 2.76332 16.4636 3.26504 15.42C3.76676 14.3763 4.55297 13.4955 5.53318 12.879C6.5134 12.2624 7.64778 11.9351 8.80578 11.9348L8.80403 11.9366ZM8.80403 22.1373C9.87848 22.1373 10.9089 21.7105 11.6687 20.9508C12.4284 20.191 12.8553 19.1606 12.8553 18.0861C12.8553 17.0116 12.4284 15.9812 11.6687 15.2214C10.9089 14.4617 9.87848 14.0348 8.80403 14.0348C7.72957 14.0348 6.69912 14.4617 5.93936 15.2214C5.1796 15.9812 4.75278 17.0116 4.75278 18.0861C4.75278 19.1606 5.1796 20.191 5.93936 20.9508C6.69912 21.7105 7.72957 22.1373 8.80403 22.1373Z" fill="url(#paint0_linear_3544_15435)"/>
<defs>
<linearGradient id="paint0_linear_3544_15435" x1="0.0263672" y1="14.4757" x2="27.9998" y2="14.4757" gradientUnits="userSpaceOnUse">
<stop stop-color="#3164DE"/>
<stop offset="1" stop-color="#7EA4FF"/>
</linearGradient>
</defs>
</svg>
