<svg width="49" height="48" viewBox="0 0 49 48" fill="none" xmlns="http://www.w3.org/2000/svg">
<rect x="1.29961" y="0.7" width="46.6" height="46.6" rx="14.7" fill="url(#paint0_linear_3541_14814)"/>
<rect x="1.29961" y="0.7" width="46.6" height="46.6" rx="14.7" stroke="white" stroke-width="1.4"/>
<path d="M26.4502 33.5168C26.3679 32.8068 26.1199 32.1223 25.7254 31.5166C25.331 30.9109 24.8008 30.4002 24.1759 30.024L24.2019 29.9396C25.2441 30.1608 26.3237 30.1048 27.3277 29.7773C28.3317 29.4499 29.2234 28.8631 29.9097 28.0782C30.596 27.2933 31.0516 26.3391 31.229 25.3153C31.4064 24.2915 31.2991 23.2355 30.9183 22.2578L31.109 22.1329C31.9692 22.8999 33.0808 23.3377 34.2354 23.3641C35.3901 23.3905 36.5084 23.0038 37.381 22.2763C38.2535 21.5489 38.8203 20.5308 38.9751 19.4127C39.13 18.2946 38.8623 17.1533 38.2221 16.2028C37.582 15.2522 36.6134 14.5576 35.4979 14.2491C34.3823 13.9407 33.1964 14.0395 32.1624 14.5271C31.1284 15.0147 30.3172 15.8576 29.8809 16.8979C29.4446 17.9382 29.4132 19.1043 29.7925 20.1779L29.6406 20.278C28.6007 19.2081 27.1921 18.5569 25.6974 18.4551C24.2027 18.3533 22.7327 18.8085 21.5825 19.7292L19.2487 17.7485C19.6896 16.7087 19.7257 15.5413 19.3501 14.465C18.9746 13.3888 18.2133 12.4776 17.2088 11.9023C16.2043 11.3269 15.0257 11.1268 13.8937 11.3394C12.7617 11.5521 11.7541 12.163 11.0597 13.0575C10.3652 13.9521 10.0317 15.069 10.1214 16.1989C10.2112 17.3288 10.7182 18.3942 11.5474 19.1954C12.3765 19.9966 13.471 20.4786 14.6256 20.5512C15.7803 20.6237 16.9159 20.2818 17.8196 19.5895L20.094 21.521C19.4336 22.7662 19.2629 24.2115 19.6139 25.5863C19.965 26.9611 20.8136 28.1711 22.001 28.99L21.8982 29.3265C20.9291 29.2784 19.9728 29.5217 19.1577 30.0237C18.3426 30.5257 17.7077 31.2623 17.3383 32.1347C16.9689 33.007 16.8827 33.9732 17.0913 34.9036C17.2999 35.834 17.7933 36.6839 18.5052 37.3392C19.217 37.9945 20.1133 38.4239 21.0737 38.5695C22.034 38.7152 23.0124 38.5702 23.8773 38.1541C24.7423 37.738 25.4524 37.0706 25.9124 36.2416C26.3723 35.4127 26.56 34.4618 26.4502 33.5168ZM34.0071 16.4012C34.4738 16.3561 34.9459 16.4478 35.3635 16.6647C35.7811 16.8815 36.1256 17.2138 36.3534 17.6195C36.5811 18.0253 36.6819 18.4862 36.6431 18.944C36.6042 19.4018 36.4273 19.836 36.1349 20.1916C35.8425 20.5473 35.4476 20.8083 35.0002 20.9419C34.5528 21.0754 34.073 21.0754 33.6214 20.9419C33.1699 20.8083 32.7668 20.5472 32.4633 20.1916C32.1597 19.836 31.9693 19.4018 31.9161 18.944C31.8448 18.3301 32.025 17.7173 32.4172 17.2404C32.8093 16.7635 33.3812 16.4617 34.0071 16.4012ZM12.4991 16.1381C12.4459 15.6803 12.5323 15.2194 12.7474 14.8136C12.9625 14.4079 13.2966 14.0756 13.7074 13.8588C14.1183 13.6419 14.5874 13.5502 15.0556 13.5953C15.5237 13.6404 15.9698 13.8203 16.3375 14.1121C16.7051 14.404 16.9778 14.7947 17.1211 15.2349C17.2643 15.6752 17.2716 16.1451 17.1422 16.5854C17.0127 17.0256 16.7522 17.4163 16.3937 17.7082C16.0352 18 15.5947 18.1799 15.1279 18.225C14.5021 18.2854 13.8735 18.0995 13.3805 17.7082C12.8875 17.3168 12.5704 16.752 12.4991 16.1381ZM19.3706 34.2008C19.3174 33.7429 19.4038 33.282 19.6188 32.8763C19.8339 32.4706 20.168 32.1383 20.5789 31.9214C20.9897 31.7045 21.4589 31.6129 21.9271 31.658C22.3952 31.7031 22.8413 31.8829 23.209 32.1748C23.5766 32.4666 23.8493 32.8574 23.9925 33.2976C24.1358 33.7378 24.1431 34.2078 24.0136 34.648C23.8842 35.0882 23.6237 35.479 23.2652 35.7708C22.9066 36.0627 22.4662 36.2425 21.9994 36.2876C21.3735 36.3481 20.7449 36.1622 20.2519 35.7708C19.7589 35.3795 19.4419 34.8147 19.3706 34.2008Z" fill="white"/>
<defs>
<linearGradient id="paint0_linear_3541_14814" x1="24.5996" y1="48" x2="24.5996" y2="0" gradientUnits="userSpaceOnUse">
<stop stop-color="#88BCFF"/>
<stop offset="1" stop-color="#5088FF"/>
</linearGradient>
</defs>
</svg>
