<svg width="49" height="48" viewBox="0 0 49 48" fill="none" xmlns="http://www.w3.org/2000/svg">
<rect x="0.900195" y="0.7" width="46.6" height="46.6" rx="14.7" fill="url(#paint0_linear_3541_14836)"/>
<rect x="0.900195" y="0.7" width="46.6" height="46.6" rx="14.7" stroke="white" stroke-width="1.4"/>
<g clip-path="url(#clip0_3541_14836)">
<path d="M32.0004 24.0005C31.3869 24.0004 30.7817 24.1416 30.2316 24.4131C29.6815 24.6847 29.2014 25.0794 28.8284 25.5665L28.7584 25.5365C29.0334 24.6845 29.0747 23.7743 28.8778 22.9009C28.6809 22.0276 28.2531 21.2231 27.6392 20.5715C27.0252 19.92 26.2475 19.4452 25.3874 19.1968C24.5273 18.9484 23.6162 18.9355 22.7494 19.1595L22.6584 18.9875C23.3848 18.3412 23.8506 17.4522 23.9684 16.4871C24.0863 15.522 23.8482 14.5471 23.2987 13.745C22.7492 12.9429 21.926 12.3687 20.9835 12.13C20.041 11.8914 19.0438 12.0046 18.1788 12.4486C17.3138 12.8925 16.6404 13.6366 16.2847 14.5415C15.9291 15.4464 15.9157 16.4499 16.2469 17.364C16.5782 18.2781 17.2314 19.04 18.0842 19.5069C18.937 19.9739 19.9308 20.1138 20.8794 19.9005L20.9524 20.0375C19.9525 20.8048 19.2798 21.922 19.0695 23.1647C18.8591 24.4075 19.1267 25.6838 19.8184 26.7375L17.9334 28.5005C17.0814 28.0297 16.0869 27.8858 15.1364 28.0958C14.1859 28.3057 13.3445 28.855 12.77 29.6408C12.1955 30.4266 11.9272 31.395 12.0155 32.3644C12.1038 33.3338 12.5425 34.2378 13.2495 34.9069C13.9566 35.576 14.8833 35.9643 15.8561 35.9991C16.8289 36.0339 17.781 35.7127 18.534 35.0958C19.287 34.4789 19.7892 33.6086 19.9465 32.648C20.1038 31.6873 19.9053 30.7023 19.3884 29.8775L21.2264 28.1595C22.2359 28.8342 23.4567 29.118 24.6602 28.9576C25.8638 28.7973 26.9677 28.2039 27.7654 27.2885L28.0444 27.4075C27.9234 28.2149 28.0523 29.0401 28.414 29.7721C28.7756 30.5041 29.3526 31.108 30.0674 31.5025C30.7822 31.897 31.6007 32.0634 32.4128 31.9791C33.2249 31.8949 33.9918 31.5642 34.6105 31.0314C35.2292 30.4986 35.67 29.7892 35.8737 28.9985C36.0774 28.2079 36.0343 27.3738 35.7502 26.6084C35.466 25.8429 34.9544 25.1828 34.2841 24.7166C33.6138 24.2504 32.8169 24.0005 32.0004 24.0005ZM18.0004 16.0005C18.0004 15.6049 18.1177 15.2182 18.3375 14.8893C18.5572 14.5604 18.8696 14.3041 19.235 14.1527C19.6005 14.0013 20.0026 13.9617 20.3906 14.0389C20.7786 14.1161 21.1349 14.3066 21.4146 14.5863C21.6943 14.866 21.8848 15.2223 21.962 15.6103C22.0392 15.9983 21.9996 16.4004 21.8482 16.7658C21.6968 17.1313 21.4405 17.4436 21.1116 17.6634C20.7827 17.8832 20.396 18.0005 20.0004 18.0005C19.47 18.0005 18.9613 17.7898 18.5862 17.4147C18.2111 17.0396 18.0004 16.5309 18.0004 16.0005ZM16.0004 34.0005C15.6049 34.0005 15.2182 33.8832 14.8893 33.6634C14.5604 33.4436 14.304 33.1313 14.1527 32.7658C14.0013 32.4004 13.9617 31.9983 14.0388 31.6103C14.116 31.2223 14.3065 30.866 14.5862 30.5863C14.8659 30.3066 15.2223 30.1161 15.6102 30.0389C15.9982 29.9617 16.4003 30.0013 16.7658 30.1527C17.1312 30.3041 17.4436 30.5604 17.6634 30.8893C17.8831 31.2182 18.0004 31.6049 18.0004 32.0005C18.0004 32.5309 17.7897 33.0396 17.4146 33.4147C17.0396 33.7898 16.5308 34.0005 16.0004 34.0005ZM24.0004 27.0005C23.3511 26.9992 22.7197 26.7873 22.2011 26.3966C21.6825 26.0059 21.3047 25.4575 21.1243 24.8337C20.944 24.21 20.9709 23.5445 21.201 22.9373C21.4311 22.3302 21.852 21.814 22.4004 21.4665L22.8074 21.2495C23.2164 21.0716 23.6598 20.9871 24.1056 21.0022C24.5513 21.0173 24.988 21.1316 25.384 21.3367C25.78 21.5418 26.1253 21.8327 26.3947 22.1881C26.6641 22.5435 26.851 22.9544 26.9415 23.3911C27.0321 23.8278 27.0242 24.2792 26.9184 24.7124C26.8125 25.1456 26.6114 25.5498 26.3297 25.8956C26.048 26.2413 25.6928 26.5199 25.2898 26.711C24.8869 26.9021 24.4464 27.001 24.0004 27.0005ZM32.0004 30.0005C31.6049 30.0005 31.2182 29.8832 30.8893 29.6634C30.5604 29.4436 30.304 29.1313 30.1527 28.7658C30.0013 28.4004 29.9617 27.9983 30.0388 27.6103C30.116 27.2223 30.3065 26.866 30.5862 26.5863C30.8659 26.3066 31.2223 26.1161 31.6102 26.0389C31.9982 25.9617 32.4003 26.0013 32.7658 26.1527C33.1312 26.3041 33.4436 26.5604 33.6634 26.8893C33.8831 27.2182 34.0004 27.6049 34.0004 28.0005C34.0004 28.5309 33.7897 29.0396 33.4146 29.4147C33.0396 29.7898 32.5308 30.0005 32.0004 30.0005Z" fill="url(#paint1_linear_3541_14836)"/>
<path d="M32.0004 24.0005C31.3869 24.0004 30.7817 24.1416 30.2316 24.4131C29.6815 24.6847 29.2014 25.0794 28.8284 25.5665L28.7584 25.5365C29.0334 24.6845 29.0747 23.7743 28.8778 22.9009C28.6809 22.0276 28.2531 21.2231 27.6392 20.5715C27.0252 19.92 26.2475 19.4452 25.3874 19.1968C24.5273 18.9484 23.6162 18.9355 22.7494 19.1595L22.6584 18.9875C23.3848 18.3412 23.8506 17.4522 23.9684 16.4871C24.0863 15.522 23.8482 14.5471 23.2987 13.745C22.7492 12.9429 21.926 12.3687 20.9835 12.13C20.041 11.8914 19.0438 12.0046 18.1788 12.4486C17.3138 12.8925 16.6404 13.6366 16.2847 14.5415C15.9291 15.4464 15.9157 16.4499 16.2469 17.364C16.5782 18.2781 17.2314 19.04 18.0842 19.5069C18.937 19.9739 19.9308 20.1138 20.8794 19.9005L20.9524 20.0375C19.9525 20.8048 19.2798 21.922 19.0695 23.1647C18.8591 24.4075 19.1267 25.6838 19.8184 26.7375L17.9334 28.5005C17.0814 28.0297 16.0869 27.8858 15.1364 28.0958C14.1859 28.3057 13.3445 28.855 12.77 29.6408C12.1955 30.4266 11.9272 31.395 12.0155 32.3644C12.1038 33.3338 12.5425 34.2378 13.2495 34.9069C13.9566 35.576 14.8833 35.9643 15.8561 35.9991C16.8289 36.0339 17.781 35.7127 18.534 35.0958C19.287 34.4789 19.7892 33.6086 19.9465 32.648C20.1038 31.6873 19.9053 30.7023 19.3884 29.8775L21.2264 28.1595C22.2359 28.8342 23.4567 29.118 24.6602 28.9576C25.8638 28.7973 26.9677 28.2039 27.7654 27.2885L28.0444 27.4075C27.9234 28.2149 28.0523 29.0401 28.414 29.7721C28.7756 30.5041 29.3526 31.108 30.0674 31.5025C30.7822 31.897 31.6007 32.0634 32.4128 31.9791C33.2249 31.8949 33.9918 31.5642 34.6105 31.0314C35.2292 30.4986 35.67 29.7892 35.8737 28.9985C36.0774 28.2079 36.0343 27.3738 35.7502 26.6084C35.466 25.8429 34.9544 25.1828 34.2841 24.7166C33.6138 24.2504 32.8169 24.0005 32.0004 24.0005ZM18.0004 16.0005C18.0004 15.6049 18.1177 15.2182 18.3375 14.8893C18.5572 14.5604 18.8696 14.3041 19.235 14.1527C19.6005 14.0013 20.0026 13.9617 20.3906 14.0389C20.7786 14.1161 21.1349 14.3066 21.4146 14.5863C21.6943 14.866 21.8848 15.2223 21.962 15.6103C22.0392 15.9983 21.9996 16.4004 21.8482 16.7658C21.6968 17.1313 21.4405 17.4436 21.1116 17.6634C20.7827 17.8832 20.396 18.0005 20.0004 18.0005C19.47 18.0005 18.9613 17.7898 18.5862 17.4147C18.2111 17.0396 18.0004 16.5309 18.0004 16.0005ZM16.0004 34.0005C15.6049 34.0005 15.2182 33.8832 14.8893 33.6634C14.5604 33.4436 14.304 33.1313 14.1527 32.7658C14.0013 32.4004 13.9617 31.9983 14.0388 31.6103C14.116 31.2223 14.3065 30.866 14.5862 30.5863C14.8659 30.3066 15.2223 30.1161 15.6102 30.0389C15.9982 29.9617 16.4003 30.0013 16.7658 30.1527C17.1312 30.3041 17.4436 30.5604 17.6634 30.8893C17.8831 31.2182 18.0004 31.6049 18.0004 32.0005C18.0004 32.5309 17.7897 33.0396 17.4146 33.4147C17.0396 33.7898 16.5308 34.0005 16.0004 34.0005ZM24.0004 27.0005C23.3511 26.9992 22.7197 26.7873 22.2011 26.3966C21.6825 26.0059 21.3047 25.4575 21.1243 24.8337C20.944 24.21 20.9709 23.5445 21.201 22.9373C21.4311 22.3302 21.852 21.814 22.4004 21.4665L22.8074 21.2495C23.2164 21.0716 23.6598 20.9871 24.1056 21.0022C24.5513 21.0173 24.988 21.1316 25.384 21.3367C25.78 21.5418 26.1253 21.8327 26.3947 22.1881C26.6641 22.5435 26.851 22.9544 26.9415 23.3911C27.0321 23.8278 27.0242 24.2792 26.9184 24.7124C26.8125 25.1456 26.6114 25.5498 26.3297 25.8956C26.048 26.2413 25.6928 26.5199 25.2898 26.711C24.8869 26.9021 24.4464 27.001 24.0004 27.0005ZM32.0004 30.0005C31.6049 30.0005 31.2182 29.8832 30.8893 29.6634C30.5604 29.4436 30.304 29.1313 30.1527 28.7658C30.0013 28.4004 29.9617 27.9983 30.0388 27.6103C30.116 27.2223 30.3065 26.866 30.5862 26.5863C30.8659 26.3066 31.2223 26.1161 31.6102 26.0389C31.9982 25.9617 32.4003 26.0013 32.7658 26.1527C33.1312 26.3041 33.4436 26.5604 33.6634 26.8893C33.8831 27.2182 34.0004 27.6049 34.0004 28.0005C34.0004 28.5309 33.7897 29.0396 33.4146 29.4147C33.0396 29.7898 32.5308 30.0005 32.0004 30.0005Z" fill="white"/>
</g>
<defs>
<linearGradient id="paint0_linear_3541_14836" x1="24.2002" y1="48" x2="24.2002" y2="0" gradientUnits="userSpaceOnUse">
<stop stop-color="#D7B8FF"/>
<stop offset="1" stop-color="#956FFF"/>
</linearGradient>
<linearGradient id="paint1_linear_3541_14836" x1="23.9996" y1="36.0016" x2="23.9996" y2="12.0078" gradientUnits="userSpaceOnUse">
<stop stop-color="#B276FF"/>
<stop offset="1" stop-color="#7D4FFF"/>
</linearGradient>
<clipPath id="clip0_3541_14836">
<rect width="24" height="24" fill="white" transform="translate(12 12)"/>
</clipPath>
</defs>
</svg>
