<svg width="48" height="48" viewBox="0 0 48 48" fill="none" xmlns="http://www.w3.org/2000/svg">
<rect x="0.7" y="0.7" width="46.6" height="46.6" rx="14.7" fill="url(#paint0_linear_3541_14751)"/>
<rect x="0.7" y="0.7" width="46.6" height="46.6" rx="14.7" stroke="white" stroke-width="1.4"/>
<path d="M31 17H28.9C28.6679 15.8714 28.0538 14.8573 27.1613 14.1287C26.2687 13.4001 25.1522 13.0015 24 13H17C15.6744 13.0016 14.4036 13.5289 13.4662 14.4662C12.5289 15.4036 12.0016 16.6744 12 18V27C12.0025 27.8956 12.3055 28.7645 12.8605 29.4675C13.4155 30.1704 14.1904 30.6668 15.061 30.877C14.9668 31.3775 14.9829 31.8924 15.1082 32.386C15.2335 32.8796 15.465 33.3399 15.7866 33.7348C16.1082 34.1296 16.512 34.4496 16.97 34.6723C17.428 34.895 17.929 35.0151 18.4382 35.0241C18.9473 35.0332 19.4523 34.9311 19.918 34.7248C20.3836 34.5186 20.7986 34.2133 21.134 33.8301C21.4694 33.4469 21.7172 32.9952 21.8601 32.5064C22.0029 32.0176 22.0373 31.5035 21.961 31H26.043C26.0173 31.1655 26.0036 31.3326 26.002 31.5C26.002 32.4283 26.3707 33.3185 27.0271 33.9749C27.6835 34.6313 28.5737 35 29.502 35C30.4303 35 31.3205 34.6313 31.9769 33.9749C32.6333 33.3185 33.002 32.4283 33.002 31.5C33.0009 31.2909 32.9804 31.0824 32.941 30.877C33.8112 30.6664 34.5856 30.1699 35.1403 29.4669C35.6949 28.764 35.9976 27.8954 36 27V22C35.9984 20.6744 35.4711 19.4036 34.5338 18.4662C33.5964 17.5289 32.3256 17.0016 31 17ZM34 22V23H29V19H31C31.7956 19 32.5587 19.3161 33.1213 19.8787C33.6839 20.4413 34 21.2044 34 22ZM14 27V18C14 17.2044 14.3161 16.4413 14.8787 15.8787C15.4413 15.3161 16.2044 15 17 15H24C24.7956 15 25.5587 15.3161 26.1213 15.8787C26.6839 16.4413 27 17.2044 27 18V29H16C15.4696 29 14.9609 28.7893 14.5858 28.4142C14.2107 28.0391 14 27.5304 14 27ZM20 31.5C20 31.8978 19.842 32.2794 19.5607 32.5607C19.2794 32.842 18.8978 33 18.5 33C18.1022 33 17.7206 32.842 17.4393 32.5607C17.158 32.2794 17 31.8978 17 31.5C17.0006 31.3291 17.0321 31.1597 17.093 31H19.907C19.9679 31.1597 19.9994 31.3291 20 31.5ZM29.5 33C29.1022 33 28.7206 32.842 28.4393 32.5607C28.158 32.2794 28 31.8978 28 31.5C28.0004 31.3291 28.0319 31.1597 28.093 31H30.907C30.9681 31.1597 30.9996 31.3291 31 31.5C31 31.8978 30.842 32.2794 30.5607 32.5607C30.2794 32.842 29.8978 33 29.5 33ZM32 29H29V25H34V27C34 27.5304 33.7893 28.0391 33.4142 28.4142C33.0391 28.7893 32.5304 29 32 29Z" fill="url(#paint1_linear_3541_14751)"/>
<path d="M31 17H28.9C28.6679 15.8714 28.0538 14.8573 27.1613 14.1287C26.2687 13.4001 25.1522 13.0015 24 13H17C15.6744 13.0016 14.4036 13.5289 13.4662 14.4662C12.5289 15.4036 12.0016 16.6744 12 18V27C12.0025 27.8956 12.3055 28.7645 12.8605 29.4675C13.4155 30.1704 14.1904 30.6668 15.061 30.877C14.9668 31.3775 14.9829 31.8924 15.1082 32.386C15.2335 32.8796 15.465 33.3399 15.7866 33.7348C16.1082 34.1296 16.512 34.4496 16.97 34.6723C17.428 34.895 17.929 35.0151 18.4382 35.0241C18.9473 35.0332 19.4523 34.9311 19.918 34.7248C20.3836 34.5186 20.7986 34.2133 21.134 33.8301C21.4694 33.4469 21.7172 32.9952 21.8601 32.5064C22.0029 32.0176 22.0373 31.5035 21.961 31H26.043C26.0173 31.1655 26.0036 31.3326 26.002 31.5C26.002 32.4283 26.3707 33.3185 27.0271 33.9749C27.6835 34.6313 28.5737 35 29.502 35C30.4303 35 31.3205 34.6313 31.9769 33.9749C32.6333 33.3185 33.002 32.4283 33.002 31.5C33.0009 31.2909 32.9804 31.0824 32.941 30.877C33.8112 30.6664 34.5856 30.1699 35.1403 29.4669C35.6949 28.764 35.9976 27.8954 36 27V22C35.9984 20.6744 35.4711 19.4036 34.5338 18.4662C33.5964 17.5289 32.3256 17.0016 31 17ZM34 22V23H29V19H31C31.7956 19 32.5587 19.3161 33.1213 19.8787C33.6839 20.4413 34 21.2044 34 22ZM14 27V18C14 17.2044 14.3161 16.4413 14.8787 15.8787C15.4413 15.3161 16.2044 15 17 15H24C24.7956 15 25.5587 15.3161 26.1213 15.8787C26.6839 16.4413 27 17.2044 27 18V29H16C15.4696 29 14.9609 28.7893 14.5858 28.4142C14.2107 28.0391 14 27.5304 14 27ZM20 31.5C20 31.8978 19.842 32.2794 19.5607 32.5607C19.2794 32.842 18.8978 33 18.5 33C18.1022 33 17.7206 32.842 17.4393 32.5607C17.158 32.2794 17 31.8978 17 31.5C17.0006 31.3291 17.0321 31.1597 17.093 31H19.907C19.9679 31.1597 19.9994 31.3291 20 31.5ZM29.5 33C29.1022 33 28.7206 32.842 28.4393 32.5607C28.158 32.2794 28 31.8978 28 31.5C28.0004 31.3291 28.0319 31.1597 28.093 31H30.907C30.9681 31.1597 30.9996 31.3291 31 31.5C31 31.8978 30.842 32.2794 30.5607 32.5607C30.2794 32.842 29.8978 33 29.5 33ZM32 29H29V25H34V27C34 27.5304 33.7893 28.0391 33.4142 28.4142C33.0391 28.7893 32.5304 29 32 29Z" fill="white"/>
<defs>
<linearGradient id="paint0_linear_3541_14751" x1="24" y1="48" x2="24" y2="0" gradientUnits="userSpaceOnUse">
<stop stop-color="#98DFBE"/>
<stop offset="1" stop-color="#31C080"/>
</linearGradient>
<linearGradient id="paint1_linear_3541_14751" x1="24" y1="35.0247" x2="24" y2="13" gradientUnits="userSpaceOnUse">
<stop stop-color="#B276FF"/>
<stop offset="1" stop-color="#7D4FFF"/>
</linearGradient>
</defs>
</svg>
